# xmcd
#
# Track frame offsets:
#	150
#	25070
#	45140
#	66767
#	91622
#	111575
#
# Disc length: 1749 seconds
#
# Revision: 1
# Processed by: cddbd v1.5PL3 Copyright (c) Steve Scherf et al.
# Submitted via: CDex 1.50Beta5
#
DISCID=3e06d306
DTITLE=Various Artist - 火魅子伝
DYEAR=1999
DGENRE=Anime
TTITLE0=佐々木ゆう子/PURE SNOW
TTITLE1=奥土居美可/瞬の色を変えて
TTITLE2=水谷優子/炎の女王
TTITLE3=水谷優子/忘れないで
TTITLE4=平松晶子/旅の果てに
TTITLE5=高田由美/わたしの星
EXTD=
EXTT0=
EXTT1=
EXTT2=
EXTT3=
EXTT4=
EXTT5=
PLAYORDER=
